<?xml version="1.0" encoding="UTF-8" standalone="no"?>
<svg
   viewBox="0 0 54 61.96"
   version="1.1"
   id="svg1"
   sodipodi:docname="Casello.svg"
   inkscape:version="1.3.2 (1:1.3.2+202311252150+091e20ef0f)"
   xmlns:inkscape="http://www.inkscape.org/namespaces/inkscape"
   xmlns:sodipodi="http://sodipodi.sourceforge.net/DTD/sodipodi-0.dtd"
   xmlns="http://www.w3.org/2000/svg"
   xmlns:svg="http://www.w3.org/2000/svg">
  <defs
     id="defs1" />
  <sodipodi:namedview
     id="namedview1"
     pagecolor="#ffffff"
     bordercolor="#666666"
     borderopacity="1.0"
     inkscape:showpageshadow="2"
     inkscape:pageopacity="0.0"
     inkscape:pagecheckerboard="0"
     inkscape:deskcolor="#d1d1d1"
     inkscape:zoom="17.947063"
     inkscape:cx="26.996061"
     inkscape:cy="30.98"
     inkscape:window-width="2500"
     inkscape:window-height="1363"
     inkscape:window-x="0"
     inkscape:window-y="0"
     inkscape:window-maximized="1"
     inkscape:current-layer="Group_165" />
  <g
     id="Group_165"
     data-name="Group 165"
     transform="translate(-1323.585 -290.965)">
    <rect
       stroke="#ffffff"
       id="Rectangle_38"
       data-name="Rectangle 38"
       width="54"
       height="51"
       rx="10"
       x="1323.585"
       y="290.965" />
    <path
       fill="#000000"
       strokeWidth="0.155"
       d="m 1331.7761,309.5844 0.056,-0.5707 0.058,-0.57071 1.1971,1.36873 0.6166,0.64084 v -3.97319 l -0.8319,-0.86332 -0.8318,-0.86573 c -0.09,0.46914 -0.048,2.54642 -0.085,5.04689 m 0,0 -2.1595,-2.20303 c -1.1196,-1.10997 -1.33,-1.49206 -1.3276,-2.40616 0,-1.69761 1.7073,-2.80517 3.1462,-2.04826 0.162,0.0846 3.504,3.51614 7.424,7.62475 5.9803,6.26327 7.2064,7.50383 7.6126,7.68762 0.5853,0.26601 0.8754,0.53443 1.1511,1.07612 0.2056,0.40143 0.2104,0.50058 0.2588,6.72274 l 0.048,6.32131 1.0399,0.029 1.0447,0.0266 v -31.90157 l 9.2377,0.0242 9.2401,0.0266 v 3.71927 l 0.024,16.68835 0.024,11.43833 h 1.3639 c 1.3155,0 1.3687,0.007 1.6009,0.24908 0.3289,0.34823 0.341,1.24298 0.024,1.63232 l -0.2177,0.26601 -14.212,0.0218 c -7.8158,0.0121 -16.8214,0 -20.0135,-0.029 l -5.8038,-0.0508 -0.1862,-0.24182 c -0.2902,-0.37483 -0.2588,-1.272 0.053,-1.59605 l 0.237,-0.2515 h 11.9365 l 0.024,-5.29113 c -0.087,-1.00841 0.097,-5.34434 -0.089,-5.57649 -0.3458,-0.4377 -0.4135,-0.16928 -5.7724,-5.83766 l -5.8836,-6.33581 m 35.4903,7.65376 v -14.98107 h -15.6171 v 29.95972 h 15.6171 z m -13.3633,9.00073 c -0.072,-0.0314 -0.1209,-0.24666 -0.1209,-0.55136 v -0.503 h 11.3585 l -0.029,0.53686 -0.029,0.53201 -5.5281,0.0193 c -3.0422,0.01 -5.5862,-0.005 -5.6515,-0.0339 z m -0.056,-2.14015 c -0.036,-0.0363 -0.065,-0.29019 -0.065,-0.56104 v -0.4909 h 11.3585 l -0.029,0.53202 -0.029,0.53685 -5.5862,0.0242 c -3.0711,0.0169 -5.6103,-0.002 -5.649,-0.0411 z m 0.5272,-4.23678 a 1.6153918,1.6153918 0 0 1 -0.4353,-0.41594 c -0.2031,-0.28293 -0.2056,-0.37724 -0.2346,-6.42045 -0.024,-4.14247 0,-6.2536 0.073,-6.5051 a 1.5694451,1.5694451 0 0 1 0.4062,-0.64084 l 0.2999,-0.266 5.0227,0.029 c 4.8655,0.0266 5.03,0.0338 5.2404,0.23215 0.4836,0.45221 0.4836,0.44254 0.4836,6.93071 0,6.48575 0,6.47607 -0.4836,6.92829 -0.2104,0.19829 -0.3725,0.20555 -5.1775,0.22973 -3.8209,0.0193 -5.0155,-0.005 -5.1944,-0.10157 z m 2.0265,-2.98654 c 0,-2.10388 0.056,-2.34328 0.6118,-2.69877 0.2829,-0.18378 0.5006,-0.20071 2.544,-0.20071 1.9104,0 2.2659,0.0242 2.4593,0.16686 0.4257,0.31437 0.4958,0.70129 0.4958,2.73988 v 1.89107 l 0.7521,-0.029 0.7496,-0.029 v -11.82283 l -4.5318,-0.0242 -4.5366,-0.029 v 11.92682 h 1.4558 z m 4.9259,0.0822 0.024,-1.75807 h -3.7845 v 3.56934 l 1.8669,-0.0266 1.8668,-0.0266 z m -17.733,3.19693 c 0.1282,-0.64809 0.5417,-1.27684 1.0157,-1.54768 0.191,-0.1064 0.3458,-0.21764 0.3458,-0.24908 0,-0.029 -0.4595,-0.53201 -1.0181,-1.11965 l -1.0181,-1.06645 v 3.95868 l 0.2588,0.28535 c 0.1451,0.15719 0.2732,0.28536 0.2853,0.28536 0,0 0.073,-0.24425 0.1306,-0.54653 z m -1.6444,-3.09778 v -1.91284 l -0.873,-0.91409 -0.873,-0.91168 v 3.96593 l 0.798,0.84155 c 0.4377,0.4643 0.8319,0.84397 0.8706,0.84397 0.043,0 0.077,-0.8609 0.077,-1.91284 z m -3.6371,-5.72642 -0.827,-0.87057 v 3.97077 l 0.8004,0.84639 0.8005,0.84397 0.027,-1.95879 0.027,-1.96362 z m -2.7156,-2.85353 -0.8271,-0.86816 v 3.96835 l 0.8005,0.84639 0.8004,0.84639 0.027,-1.96362 0.027,-1.95878 z m -4.6528,-4.56083 c -0.068,-0.1862 -0.4232,-0.15718 -0.9068,0.0726 -0.3313,0.15719 -0.4595,0.29745 -0.6167,0.67711 -0.2974,0.70855 -0.1523,1.10272 0.7763,2.1063 l 0.7424,0.80044 0.027,-1.76291 c 0.024,-0.9673 0,-1.82094 -0.024,-1.89349 z m 18.8697,-4.24644 c -0.1693,-0.21765 -0.8924,-3.1268 -0.8271,-3.33719 a 0.41110271,0.41110271 0 0 1 0.266,-0.24183 c 0.1185,-0.0314 1.85,-0.0435 3.8499,-0.0266 l 10.3162,-0.0242 c 6.0215,0 6.2464,0.007 6.4084,0.19588 0.1596,0.18379 0.1572,0.26842 -0.048,1.6565 a 20.475333,20.475333 0 0 1 -0.295,1.69036 l -0.08,0.22973 h -9.7383 c -8.1809,0 -9.7576,-0.0242 -9.8519,-0.14267 z"
       id="path1"
       style="fill:#f9f9f9;stroke-width:2.41825" />
  </g>
</svg>
