<?xml version="1.0" encoding="UTF-8" standalone="no"?>
<!-- Created with Inkscape (http://www.inkscape.org/) -->

<svg
   width="200mm"
   height="200mm"
   viewBox="0 0 200 200"
   version="1.1"
   id="svg1"
   xml:space="preserve"
   inkscape:version="1.3.2 (1:1.3.2+202311252150+091e20ef0f)"
   sodipodi:docname="casell.svg"
   xmlns:inkscape="http://www.inkscape.org/namespaces/inkscape"
   xmlns:sodipodi="http://sodipodi.sourceforge.net/DTD/sodipodi-0.dtd"
   xmlns="http://www.w3.org/2000/svg"
   xmlns:svg="http://www.w3.org/2000/svg"><sodipodi:namedview
     id="namedview1"
     pagecolor="#ffffff"
     bordercolor="#666666"
     borderopacity="1.0"
     inkscape:showpageshadow="2"
     inkscape:pageopacity="0.0"
     inkscape:pagecheckerboard="0"
     inkscape:deskcolor="#d1d1d1"
     inkscape:document-units="mm"
     inkscape:zoom="0.70048014"
     inkscape:cx="463.96748"
     inkscape:cy="750.91351"
     inkscape:window-width="2500"
     inkscape:window-height="1363"
     inkscape:window-x="0"
     inkscape:window-y="0"
     inkscape:window-maximized="1"
     inkscape:current-layer="layer1" /><defs
     id="defs1" /><g
     inkscape:label="Layer 1"
     inkscape:groupmode="layer"
     id="layer1"><path
       style="fill:#000000;stroke-width:1.65903"
       d="m 17.619328,70.636077 0.247496,-2.519254 0.247495,-2.519238 5.292669,6.042541 2.720447,2.832597 V 65.702521 56.932319 L 22.455007,53.118 18.782578,49.303682 c -0.401808,2.06967 -0.206499,11.237557 -0.379645,22.281519 m 0,0 -9.5281305,-9.736144 C 3.9256716,56.954849 2.9950046,55.269514 3.01099,51.230294 c 0.029669,-7.494761 7.533676,-12.377746 13.894135,-9.041153 0.714763,0.37495 15.464155,15.521474 32.776427,33.658942 26.401086,27.659507 31.821278,33.133247 33.612802,33.944857 2.579915,1.16878 3.85719,2.36278 5.079028,4.74794 0.90825,1.77299 0.925067,2.21261 1.13602,29.69415 l 0.214126,27.89451 4.603757,0.1277 4.603761,0.12771 V 162.69663 95.843005 31.527697 l 40.791454,0.11478 40.79143,0.114781 v 16.415605 l 0.10894,73.687667 0.10893,50.49407 h 6.01321 c 5.81339,0 6.04815,0.0368 7.06439,1.10432 1.46248,1.53644 1.5105,5.48853 0.0876,7.20949 l -0.96359,1.16541 -62.73958,0.097 c -34.506771,0.0534 -74.271438,-0.005 -88.365928,-0.12804 l -1.6e-5,-9e-5 -25.626344,-0.22496 -0.818501,-1.06215 c -1.271712,-1.65027 -1.141036,-5.61354 0.232677,-7.05671 l 1.051175,-1.10432 h 26.349708 26.349703 l 0.114598,-23.35528 C 69.091567,144.54229 69.893512,125.409 69.081866,124.37876 67.555807,122.44163 67.25203,123.62374 43.593143,98.598817 L 17.619328,70.636077 M 174.30421,104.41782 V 38.280856 h -34.47466 -34.47466 l -0.006,27.557071 0.006,69.173773 v 35.543 h 34.47466 34.47466 z m -58.99234,39.74608 c -0.32613,-0.13944 -0.53532,-1.09326 -0.53532,-2.44092 v -2.21207 h 25.07539 25.07538 l -0.12948,2.36205 -0.12949,2.36203 -24.41063,0.0789 c -13.42584,0.0434 -24.65152,-0.0242 -24.94594,-0.14998 z m -0.24637,-9.44842 c -0.15894,-0.16698 -0.28895,-1.28212 -0.28895,-2.47813 v -2.17458 h 25.07539 25.07538 l -0.12948,2.36205 -0.12949,2.36203 -24.65701,0.11615 c -13.56134,0.0638 -24.78702,-0.0206 -24.94593,-0.18746 z m 2.32186,-18.71258 c -0.56614,-0.30924 -1.43335,-1.13371 -1.92714,-1.83219 -0.88468,-1.2514 -0.89969,-1.66562 -1.02712,-28.344424 -0.0874,-18.292361 0.0193,-27.610976 0.32892,-28.728479 0.25205,-0.909708 1.05363,-2.18032 1.78132,-2.823584 l 1.32307,-1.169589 22.17863,0.124134 c 21.48536,0.120221 22.20865,0.15219 23.13893,1.023944 2.12983,1.995702 2.12685,1.952952 2.12685,30.593977 0,28.641021 0.003,28.598261 -2.12685,30.593961 -0.93026,0.87169 -1.64522,0.90335 -22.86377,1.01215 -16.85762,0.0864 -22.14061,-0.0172 -22.93284,-0.4499 z m 8.95212,-13.18211 c 0,-9.281235 0.24072,-10.344851 2.69739,-11.918517 1.2548,-0.803788 2.2072,-0.878386 11.23272,-0.879934 8.42584,-0.0015 10.00684,0.105088 10.85872,0.731994 1.87961,1.383097 2.19133,3.103428 2.19133,12.093277 v 8.35675 l 3.31899,-0.13145 3.31899,-0.13145 V 84.846604 58.751734 l -20.021,-0.11699 -20.02099,-0.116991 v 26.32426 26.324267 h 3.21192 3.21193 z m 21.74413,0.35979 0.11719,-7.760971 h -8.36111 -8.36112 v 7.883161 7.88317 l 8.24394,-0.12226 8.24395,-0.12227 z m -78.286462,14.12279 c 0.567079,-2.86969 2.390019,-5.64424 4.488382,-6.83144 0.835817,-0.47288 1.519679,-0.9692 1.519679,-1.10294 0,-0.13383 -2.023519,-2.36177 -4.496703,-4.95117 L 66.81182,99.709834 v 8.740616 8.74061 l 1.150765,1.26188 c 0.632908,0.69403 1.197398,1.26189 1.254405,1.26189 0.05697,0 0.318073,-1.08516 0.580158,-2.41146 z m -7.267905,-13.68228 v -8.445206 l -3.854309,-4.030447 -3.854303,-4.030429 v 8.75449 8.754492 l 3.523654,3.72117 c 1.938024,2.04665 3.672459,3.72116 3.854309,3.72116 0.181867,0 0.330649,-3.80035 0.330649,-8.44523 z M 46.479205,78.339466 42.829447,74.505151 v 8.760662 8.760663 l 3.533116,3.731796 3.533118,3.731795 0.116637,-8.658142 0.116637,-8.65816 z M 34.488021,65.741937 30.838263,61.907638 v 8.760646 8.760662 l 3.533116,3.731813 3.533118,3.731796 0.116637,-8.658159 0.116637,-8.658143 z M 13.946076,45.607731 C 13.645201,44.784015 12.075591,44.90876 9.9422755,45.92592 8.4825185,46.621949 7.9210458,47.236374 7.2171652,48.908071 5.8993499,52.037856 6.5414645,53.779017 10.649265,58.21463 l 3.272862,3.534016 0.117576,-7.781355 c 0.06466,-4.27975 0.02253,-8.041558 -0.09362,-8.35956 z M 97.258664,26.859564 C 96.504377,25.90476 93.314943,13.056195 93.598895,12.116287 c 0.137582,-0.455416 0.670929,-0.935504 1.185193,-1.066864 0.514264,-0.131445 8.161862,-0.182442 16.994652,-0.11359 l 45.54293,-0.09963 c 26.58003,0 27.5824,0.03044 28.29646,0.859374 0.70244,0.815418 0.6917,1.189364 -0.21011,7.311058 -0.52273,3.54842 -1.1103,6.907221 -1.30571,7.463984 l -0.35529,1.012296 h -42.99795 c -36.12069,0 -43.076722,-0.09965 -43.490438,-0.62342 z"
       id="path1"
       sodipodi:nodetypes="ccccccccccccsssssscccssccccccssscccccsscccsssccccccccccccscccccscccsccccccccssssscscscssssscscccccccccccscccccccccsssscccsssscccccsssccccccccccccccccccsssscssscscccssscscc" /></g></svg>
