<?xml version="1.0" encoding="UTF-8" standalone="no"?>
<svg
   viewBox="0 0 18.641 16.56"
   version="1.1"
   id="svg1"
   sodipodi:docname="CarSharing (copy).svg"
   xml:space="preserve"
   inkscape:version="1.3.2 (1:1.3.2+202311252150+091e20ef0f)"
   xmlns:inkscape="http://www.inkscape.org/namespaces/inkscape"
   xmlns:sodipodi="http://sodipodi.sourceforge.net/DTD/sodipodi-0.dtd"
   xmlns="http://www.w3.org/2000/svg"
   xmlns:svg="http://www.w3.org/2000/svg"><defs
     id="defs1" /><sodipodi:namedview
     id="namedview1"
     pagecolor="#ffffff"
     bordercolor="#666666"
     borderopacity="1.0" /><path
     style="fill:#000000;stroke-width:0.155388"
     d="M 1.6952445,5.8675222 1.7184255,5.6315645 1.7416064,5.3956083 2.237327,5.9615632 2.492129,6.2268693 V 5.4054368 4.5840043 L 2.148163,4.2267484 1.8041967,3.8694926 c -0.037634,0.193849 -0.019341,1.0525295 -0.035558,2.0869262 m 0,0 L 0.87621701,5.0445147 C 0.41267273,4.5861145 0.32550485,4.4282631 0.32700215,4.0499427 0.32978066,3.34797 1.0326194,2.8906213 1.6283511,3.2031323 1.695297,3.2382507 3.0767513,4.6569009 4.6982488,6.3556879 7.171021,8.946326 7.6786856,9.4590059 7.846483,9.5350227 c 0.2416394,0.10947 0.361271,0.2213021 0.4757105,0.4447005 0.085068,0.1660618 0.086644,0.2072368 0.1064017,2.7812058 l 0.020056,2.612649 0.4311958,0.01196 0.4311963,0.01196 V 14.490075 8.2284474 2.2045627 l 3.8205987,0.01075 3.820597,0.01075 v 1.5375144 l 0.0102,6.9017159 0.0102,4.729364 h 0.563208 c 0.544493,0 0.566481,0.0034 0.661664,0.103432 0.136978,0.143906 0.141475,0.514066 0.0082,0.675254 l -0.09025,0.109154 -5.876299,0.0091 c -3.231964,0.005 -6.9563926,-4.63e-4 -8.2765073,-0.01199 l -1.4e-6,-9e-6 -2.4002087,-0.02107 -0.076662,-0.09948 c -0.1191043,-0.154587 -0.106865,-0.525794 0.021799,-0.660964 l 0.098455,-0.103432 H 4.073997 6.5419565 l 0.010734,-2.187495 C 6.516225,12.789708 6.5913365,10.99765 6.5153165,10.901156 6.3723829,10.719721 6.3439307,10.83044 4.127998,8.4865617 L 1.6952445,5.8675222 M 16.370626,9.0315797 V 2.8370755 H 13.141669 9.9127114 l -5.634e-4,2.5810437 5.634e-4,6.4789368 v 3.32902 h 3.2289576 3.228957 z M 10.8453,12.754267 c -0.03055,-0.01306 -0.05014,-0.102396 -0.05014,-0.228621 V 12.31846 h 2.348605 2.348604 l -0.01213,0.221234 -0.01213,0.221232 -2.286343,0.0074 c -1.257488,0.0041 -2.308905,-0.0023 -2.336481,-0.01405 z m -0.02308,-0.884955 c -0.01489,-0.01564 -0.02706,-0.120086 -0.02706,-0.232106 v -0.203675 h 2.348605 2.348604 l -0.01213,0.221234 -0.01213,0.221231 -2.309419,0.01088 c -1.270179,0.006 -2.321596,-0.0019 -2.33648,-0.01756 z m 0.21747,-1.752653 c -0.05303,-0.02896 -0.13425,-0.106186 -0.1805,-0.1716067 -0.08286,-0.1172082 -0.08427,-0.1560048 -0.0962,-2.6547885 -0.0082,-1.7132945 0.0018,-2.5860923 0.03081,-2.6907595 0.02361,-0.085205 0.09869,-0.2042126 0.166841,-0.2644621 l 0.123921,-0.1095456 2.07729,0.011627 c 2.012356,0.011259 2.080101,0.014255 2.167233,0.095904 0.199483,0.1869207 0.199204,0.1829169 0.199204,2.8654854 0,2.6825684 2.82e-4,2.6785632 -0.199204,2.865484 -0.08713,0.08164 -0.154094,0.08461 -2.141461,0.0948 -1.578914,0.0081 -2.073729,-0.0016 -2.14793,-0.04214 z m 0.838471,-1.2346599 c 0,-0.8692968 0.02255,-0.968917 0.252642,-1.1163093 0.117527,-0.075284 0.206731,-0.082271 1.052077,-0.082416 0.789179,-1.486e-4 0.937258,0.00984 1.017046,0.06856 0.176048,0.1295435 0.205244,0.2906725 0.205244,1.1326777 v 0.7827078 l 0.310863,-0.012311 0.310862,-0.012311 V 7.1985052 4.754414 L 13.151693,4.743456 11.276492,4.732499 v 2.4655763 2.465577 h 0.300834 0.300835 z m 2.036594,0.033698 0.01098,-0.7269063 h -0.783117 -0.783117 v 0.7383509 0.7383514 l 0.772142,-0.011452 0.772143,-0.011452 z M 6.5823109,10.238463 c 0.053114,-0.2687803 0.2238534,-0.5286496 0.4203898,-0.6398449 0.078284,-0.044291 0.1423358,-0.090777 0.1423358,-0.1033032 0,-0.012535 -0.1895264,-0.2212075 -0.4211693,-0.4637352 L 6.3026998,8.5906215 v 0.8186613 0.8186612 l 0.1077827,0.11819 c 0.059279,0.065 0.1121504,0.11819 0.1174898,0.11819 0.00534,0 0.029791,-0.101637 0.054339,-0.225861 z M 5.9015863,8.9569566 V 8.1659637 L 5.5405849,7.7884649 5.1795843,7.4109678 v 0.819961 0.8199609 l 0.3300313,0.3485315 c 0.1815189,0.1916929 0.343969,0.3485303 0.3610015,0.3485303 0.017034,0 0.030969,-0.3559474 0.030969,-0.7909949 z M 4.3983116,6.5890352 4.0564688,6.2299065 V 7.0504454 7.8709845 L 4.3873864,8.2205112 4.7183046,8.5700376 4.7292296,7.7591007 4.7401545,6.9481624 Z M 3.2751961,5.4091285 2.9333532,5.0500013 v 0.8205376 0.8205389 l 0.330918,0.3495281 0.330918,0.3495267 0.010925,-0.8109384 0.010925,-0.8109368 z M 1.3512015,3.5233236 C 1.323021,3.4461728 1.1760086,3.4578567 0.97619845,3.5531257 0.83947503,3.618317 0.78688647,3.675865 0.72095984,3.832439 0.59753084,4.1255803 0.65767249,4.2886606 1.0424164,4.7041078 l 0.3065419,0.3310021 0.011011,-0.7288155 c 0.00606,-0.4008487 0.00211,-0.7531864 -0.00877,-0.7829708 z M 9.1544047,1.7673371 C 9.0837568,1.6779086 8.7850289,0.47448945 8.8116242,0.38645602 8.8245104,0.3438009 8.8744648,0.29883485 8.9226315,0.28653172 8.9707985,0.27422055 9.687086,0.26944416 10.514381,0.27589249 l 4.265631,-0.009331 c 2.489532,0 2.583416,0.002851 2.650296,0.0804906 0.06579,0.0763737 0.06479,0.1113981 -0.01968,0.68476671 -0.04896,0.3323512 -0.103993,0.6469423 -0.122295,0.6990897 l -0.03328,0.094814 h -4.027264 c -3.3831276,0 -4.0346419,-0.00933 -4.0733913,-0.058391 z"
     id="path1"
     sodipodi:nodetypes="ccccccccccccsssssscccssccccccssscccccsscccsssccccccccccccscccccscccsccccccccssssscscscssssscscccccccccccscccccccccsssscccsssscccccsssccccccccccccccccccsssscssscscccssscscc" />
   </svg>
