<?xml version="1.0" encoding="UTF-8" standalone="no"?>
<svg
   viewBox="0 0 54 51.000001"
   version="1.1"
   id="svg417"
   sodipodi:docname="MarkerStopRail.svg"
   inkscape:version="1.2.2 (b0a8486, 2022-12-01)"
   xml:space="preserve"
   width="54"
   height="51"
   xmlns:inkscape="http://www.inkscape.org/namespaces/inkscape"
   xmlns:sodipodi="http://sodipodi.sourceforge.net/DTD/sodipodi-0.dtd"
   xmlns="http://www.w3.org/2000/svg"
   xmlns:svg="http://www.w3.org/2000/svg"><defs
     id="defs421" /><sodipodi:namedview
     id="namedview419"
     pagecolor="#505050"
     bordercolor="#eeeeee"
     borderopacity="1"
     inkscape:showpageshadow="0"
     inkscape:pageopacity="0"
     inkscape:pagecheckerboard="0"
     inkscape:deskcolor="#505050"
     showgrid="false"
     inkscape:zoom="3.3008291"
     inkscape:cx="10.603397"
     inkscape:cy="21.206793"
     inkscape:window-width="1920"
     inkscape:window-height="1080"
     inkscape:window-x="0"
     inkscape:window-y="0"
     inkscape:window-maximized="0"
     inkscape:current-layer="svg417" /><g
     id="Group_165"
     transform="translate(-1323.585,-290.965)"><g
       id="noun_Charging_Station_976545"
       data-name="noun_Charging Station_976545"
       transform="translate(1329.162,295.042)"><rect
         id="Rectangle_38"
         data-name="Rectangle 38"
         width="54"
         height="51"
         rx="10"
         transform="translate(-5.577,-4.077)"
         x="0"
         y="0" /></g></g><path
     d="m 35.233861,37.705635 5.172549,-3.694677 c 0.699352,-0.501415 1.108406,-1.293143 1.108406,-2.150832 V 15.141701 c 0,-1.134795 -0.725741,-2.150832 -1.807753,-2.507105 -0.14515,-0.05279 -0.303495,-0.105563 -0.461836,-0.145147 L 38.493094,7.4356537 c -0.184734,-1.20077 -1.05562,-2.190418 -2.243197,-2.493909 -1.966097,-0.50142 -5.251723,-1.147989 -9.249895,-1.147989 -3.998172,0 -7.296995,0.646569 -9.249896,1.147989 -1.187576,0.303491 -2.058466,1.293139 -2.243199,2.493909 l -0.752129,5.0537953 c -0.158345,0.05279 -0.31669,0.10556 -0.461837,0.145147 -1.082013,0.356273 -1.807752,1.37231 -1.807752,2.507105 v 16.718425 c 0,0.857689 0.40905,1.649417 1.108401,2.150832 l 5.172554,3.694677 -6.412911,9.500609 h 3.826633 l 1.068818,-1.583439 h 19.502633 l 1.068818,1.583439 h 3.826633 z m 4.169707,-6.465687 c 0,1.095208 -0.884081,1.97929 -1.979292,1.97929 -1.095208,0 -1.979292,-0.884082 -1.979292,-1.97929 0,-1.095209 0.884084,-1.979291 1.979292,-1.979291 1.095211,0 1.979292,0.884082 1.979292,1.979291 z M 27.989646,6.8946477 c 0,-0.606982 0.514618,-1.095207 1.121601,-1.055624 2.836988,0.171539 5.172553,0.64657 6.650422,1.029235 0.409055,0.10556 0.725744,0.448638 0.778522,0.870887 l 0.501422,3.3779943 c 0.05279,0.369467 -0.277101,0.672958 -0.646569,0.593788 -2.058463,-0.501423 -4.605154,-0.950061 -7.402555,-1.108406 -0.567395,-0.0264 -1.002843,-0.488225 -1.002843,-1.0556238 z M 32.66078,39.552978 H 21.352419 l 1.240358,-1.847343 h 8.814451 z M 29.507107,14.877796 c 0,1.385504 -1.121601,2.507102 -2.507105,2.507102 -1.385504,0 -2.507104,-1.121598 -2.507104,-2.507102 0,-1.385504 1.1216,-2.507104 2.507104,-2.507104 1.385504,0 2.507105,1.1216 2.507105,2.507104 z M 16.575726,33.219238 c -1.095208,0 -1.979293,-0.884082 -1.979293,-1.97929 0,-1.095209 0.884085,-1.979291 1.979293,-1.979291 1.095207,0 1.979292,0.884082 1.979292,1.979291 0,1.095208 -0.884085,1.97929 -1.979292,1.97929 z M 17.604957,11.69773 c -0.369468,0.09237 -0.699348,-0.224317 -0.64657,-0.593785 L 17.45981,7.7259507 c 0.06598,-0.422249 0.369467,-0.765327 0.778522,-0.87089 1.477872,-0.382662 3.800243,-0.857692 6.650423,-1.016037 0.606985,-0.03959 1.121599,0.448642 1.121599,1.055624 v 2.6390565 c 0,0.5673988 -0.435443,1.0292308 -1.002842,1.0556238 -2.797401,0.145147 -5.344088,0.606982 -7.402555,1.108402 z m 1.068818,31.813837 1.240358,-1.847343 h 14.158541 l 1.240357,1.847343 z"
     id="path643"
     style="fill:#ffffff;stroke-width:0.131953" /></svg>
