<?xml version="1.0" encoding="UTF-8" standalone="no"?>
<svg
   viewBox="0 0 55 52"
   version="1.1"
   id="svg1"
   sodipodi:docname="ServiceArea.svg"
   inkscape:version="1.2.2 (b0a8486, 2022-12-01)"
   width="55"
   height="52"
   xmlns:inkscape="http://www.inkscape.org/namespaces/inkscape"
   xmlns:sodipodi="http://sodipodi.sourceforge.net/DTD/sodipodi-0.dtd"
   xmlns="http://www.w3.org/2000/svg"
   xmlns:svg="http://www.w3.org/2000/svg">
  <defs
     id="defs1" />
  <sodipodi:namedview
     id="namedview1"
     pagecolor="#ffffff"
     bordercolor="#666666"
     borderopacity="1.0"
     inkscape:showpageshadow="2"
     inkscape:pageopacity="0.0"
     inkscape:pagecheckerboard="0"
     inkscape:deskcolor="#d1d1d1"
     inkscape:zoom="14.357067"
     inkscape:cx="38.239008"
     inkscape:cy="21.174241"
     inkscape:window-width="1920"
     inkscape:window-height="1080"
     inkscape:window-x="1152"
     inkscape:window-y="0"
     inkscape:window-maximized="0"
     inkscape:current-layer="Group_165"
     showgrid="false" />
  <g
     id="Group_165"
     data-name="Group 165"
     transform="translate(-1323.085,-290.465)">
    <rect
       stroke="#ffffff"
       id="Rectangle_38"
       data-name="Rectangle 38"
       width="54"
       height="51"
       rx="10"
       x="1323.585"
       y="290.965" />
    <path
       style="fill:#f9f9f9;stroke-width:0.271691"
       d="m 1335.4816,334.30253 v -3.028 h 1.7044 1.7044 v -8.79896 -8.79898 h -0.8327 c -0.8042,0 -0.834,-0.006 -0.8699,-0.16029 -0.02,-0.0882 -0.1529,-0.84962 -0.2943,-1.69212 -0.1406,-0.84249 -0.3851,-2.25318 -0.5416,-3.13485 -0.1565,-0.88168 -0.5647,-3.22214 -0.9074,-5.201 -0.3426,-1.97888 -0.8007,-4.61125 -1.0183,-5.84971 -0.2174,-1.23847 -0.3952,-2.30449 -0.3952,-2.36896 0,-0.10837 1.1593,-0.11717 15.4499,-0.11717 h 15.4501 l -0.037,0.16029 c -0.037,0.15805 -0.2214,1.21291 -1.3061,7.46311 -0.3027,1.74375 -0.6962,4.00406 -0.8745,5.02288 -0.1783,1.01884 -0.4792,2.75013 -0.6683,3.84732 l -0.3441,1.99491 -0.8523,0.02 -0.8522,0.02 v 0.49647 0.49646 h 1.666 1.6661 l 0.02,5.61068 c 0.02,5.57894 0.022,5.61256 0.1769,5.9438 0.21,0.44637 0.6629,0.91611 1.0897,1.13025 0.2991,0.15011 0.4482,0.17517 1.0383,0.17439 0.5766,-8e-4 0.7398,-0.0275 1.0003,-0.16327 0.421,-0.21958 0.8238,-0.62878 1.0361,-1.0525 l 0.1757,-0.35075 0.02,-5.57505 0.02,-5.57506 h -0.2537 -0.2536 l -0.02,-2.99925 c -0.015,-1.64958 0,-3.02498 0.017,-3.05643 0.02,-0.0314 0.1175,-0.0684 0.2176,-0.0821 l 0.1814,-0.025 0.018,-2.76753 0.019,-2.76754 -0.5237,-0.53049 -0.5236,-0.53048 0.1313,-1.04803 c 0.073,-0.57641 0.1453,-1.06257 0.1629,-1.08034 0.017,-0.0178 0.6658,0.59073 1.4417,1.35224 l 1.4109,1.38455 0.019,2.99382 0.019,2.9938 0.2365,0.0223 0.2364,0.0223 -0.018,3.04122 -0.019,3.04123 -0.2691,0.022 -0.2692,0.022 -0.022,5.64216 c -0.022,5.60032 -0.023,5.6456 -0.1817,6.10528 -0.4428,1.28319 -1.3579,2.20059 -2.686,2.69303 -0.679,0.25173 -1.8423,0.26722 -2.5954,0.0346 -0.968,-0.29913 -1.9607,-1.09232 -2.4082,-1.92436 -0.517,-0.9611 -0.4861,-0.60964 -0.5261,-5.96863 l -0.037,-4.84477 -0.7072,-0.0203 -0.707,-0.0203 v 7.37661 7.37661 h 1.7044 1.7044 v 3.02799 3.02798 h -13.9618 -13.9618 z m 22.3513,-26.46817 c 0.5777,-3.29077 1.3656,-7.85684 1.3656,-7.91393 0,-0.0792 -19.4135,-0.0914 -19.4619,-0.0121 -0.019,0.0295 0.06,0.58244 0.1739,1.22901 0.1128,0.64657 0.4532,2.60228 0.7548,4.34605 0.3016,1.74376 0.5649,3.24275 0.5849,3.33109 l 0.037,0.16061 8.1762,-0.0181 8.1762,-0.0181 z"
       id="path1" />
  </g>
</svg>
